<?xml version="1.0" encoding="UTF-8"?>
<svg id="mountains.svg" xmlns="http://www.w3.org/2000/svg" viewBox="0 0 800 600">
  <path d="M245.23,535.44s-16.78-3.75-42.4-7.44c-9.6-1.38-26.47-2.65-35.42-3.86s-18.54-5.62-24.15-5.61c-10.82.02-41.4,7-41.4,7v22.84h164.46l-21.08-12.94Z" fill="#bab9b9" stroke="#000" stroke-miterlimit="10"/>
  <path d="M264.52,547.38l-19.02-10.87s-80-8.53-84.99-4.26-57.74.89-57.74.89l.09,14.89,164.61.35-2.95-1Z" fill="#878787"/>
  <path d="M103.46,548.05s.07-3.33,1.03-4.26c.54-.53,3.45-1.49,3.45-1.49,0,0,2.25,2.25,3.07,2.98.36.33,1.53,1.28,1.53,1.28,0,0,.43-2.23,1.53-2.34,1-.1,2.68,1.71,2.68,1.71,0,0,3.31-1.68,4.6-1.49,1.86.27,3.86,3.7,3.86,3.7l-21.76-.08Z" fill="#0d3f2a"/>
  <path d="M148.92,548.17l-.79-4.26s-1.73-1.59-2.65-1.49c-1.44.15-2.36,2.98-2.36,2.98,0,0-.55,1.36-1.18,1.28-1.07-.14-.1-2.25-1.18-2.34-.91-.08-2.06,1.71-2.06,1.71,0,0-2.47-1.66-3.54-1.49-.69.11-2.64,1.38-4.48,2.09-2.65,1.02-5.29,1.54-5.29,1.54h23.53Z" fill="#0d3f2a"/>
  <path d="M172.89,548.17s-7.31-3.04-7.88-3.99c-.3-.5-1.73-1.59-2.65-1.49-1.44.15-2.36,2.98-2.36,2.98,0,0-.54,1.32-1.18,1.28-1.09-.06-.13-2.17-1.18-2.34-.89-.14-2.06,1.71-2.06,1.71,0,0-2.46-1.65-3.54-1.49-1.58.23-2.55,3.35-2.55,3.35h23.4Z" fill="#0d3f2a"/>
</svg>