<?xml version="1.0" encoding="UTF-8"?>
<svg xmlns="http://www.w3.org/2000/svg" version="1.1" viewBox="0 0 800 600">
  <!-- Generator: Adobe Illustrator 30.1.0, SVG Export Plug-In . SVG Version: 2.1.1 Build 136)  -->
  <defs>
    <style>
      .st0 {
        stroke: #e9ecef;
        stroke-dasharray: 3 3;
      }

      .st0, .st1, .st2 {
        fill: none;
      }

      .st3 {
        font-family: Helvetica-Bold, Helvetica;
        font-size: 14px;
        font-weight: 700;
      }

      .st3, .st4, .st5 {
        isolation: isolate;
      }

      .st3, .st5 {
        fill: #333;
      }

      .st6 {
        fill: #f8f9fa;
      }

      .st6, .st1 {
        stroke: #333;
        stroke-width: 2px;
      }

      .st4 {
        fill: #666;
        font-size: 10px;
      }

      .st4, .st5 {
        font-family: Helvetica, Helvetica;
      }

      .st7 {
        stroke: #000;
        stroke-miterlimit: 10;
      }

      .st7, .st8 {
        fill: #fff;
      }

      .st9 {
        fill: #8b4513;
        stroke: #654321;
      }

      .st10 {
        opacity: .4;
      }

      .st11 {
        opacity: .3;
      }

      .st5 {
        font-size: 12px;
      }

      .st2 {
        stroke: #666;
        stroke-dasharray: 5 5;
      }
    </style>
  </defs>
  <g id="Layer_1">
    <rect class="st6" x="100" y="50" width="600" height="500"/>
    <g id="grid-lines">
      <line class="st0" x1="150" y1="50" x2="150" y2="550"/>
      <line class="st0" x1="250" y1="50" x2="250" y2="550"/>
      <line class="st0" x1="350" y1="50" x2="350" y2="550"/>
      <line class="st0" x1="450" y1="50" x2="450" y2="550"/>
      <line class="st0" x1="100" y1="550" x2="700" y2="550"/>
      <line class="st0" x1="100" y1="450" x2="700" y2="450"/>
      <line class="st0" x1="100" y1="350" x2="700" y2="350"/>
      <line class="st0" x1="100" y1="250" x2="700" y2="250"/>
      <line class="st0" x1="100" y1="150" x2="700" y2="150"/>
      <line class="st0" x1="100" y1="50" x2="700" y2="50"/>
    </g>
    <g id="atmosphere-layers">
      <rect x="100" y="490" width="600" height="60"/>
      <rect x="100" y="300" width="600" height="190"/>
      <rect x="100" y="150" width="600" height="150"/>
      <rect x="100" y="50" width="600" height="100"/>
    </g>
    <g id="boundaries">
      <line class="st2" x1="100" y1="490" x2="700" y2="490"/>
      <line class="st2" x1="100" y1="300" x2="700" y2="300"/>
      <line class="st2" x1="100" y1="150" x2="700" y2="150"/>
    </g>
    <g id="axes">
      <line class="st1" x1="100" y1="550" x2="700" y2="550"/>
      <line class="st1" x1="100" y1="50" x2="100" y2="550"/>
    </g>
    <g id="axis-labels">
      <text class="st5" transform="translate(141.3 575)"><tspan x="0" y="0">-80</tspan></text>
      <text class="st5" transform="translate(241.3 575)"><tspan x="0" y="0">-40</tspan></text>
      <text class="st5" transform="translate(346.7 575)"><tspan x="0" y="0">0</tspan></text>
      <text class="st5" transform="translate(443.3 575)"><tspan x="0" y="0">40</tspan></text>
      <text class="st5" transform="translate(81.7 555)"><tspan x="0" y="0">0</tspan></text>
      <text class="st5" transform="translate(78.3 455)"><tspan x="0" y="0">20</tspan></text>
      <text class="st5" transform="translate(78.3 355)"><tspan x="0" y="0">40</tspan></text>
      <text class="st5" transform="translate(78.3 255)"><tspan x="0" y="0">60</tspan></text>
      <text class="st5" transform="translate(78.3 155)"><tspan x="0" y="0">80</tspan></text>
      <text class="st5" transform="translate(75 55)"><tspan x="0" y="0">100</tspan></text>
    </g>
    <g id="axis-titles">
      <text class="st3" transform="translate(343.7 595)"><tspan x="0" y="0">Temperature (°C)</tspan></text>
      <text class="st3" transform="translate(25 342.8) rotate(-90)"><tspan x="0" y="0">Altitude (km)</tspan></text>
    </g>
    <g id="layer-labels">
      <text class="st5" transform="translate(710 525)"><tspan x="0" y="0">Troposphere</tspan></text>
      <text class="st5" transform="translate(710 395)"><tspan x="0" y="0">Stratosphere</tspan></text>
      <text class="st5" transform="translate(710 225)"><tspan x="0" y="0">Mesosphere</tspan></text>
      <text class="st5" transform="translate(710 100)"><tspan x="0" y="0">Thermosphere</tspan></text>
    </g>
    <g id="boundary-labels">
      <text class="st4" transform="translate(742 493)"><tspan x="0" y="0">Tropopause</tspan></text>
      <text class="st4" transform="translate(741.1 303)"><tspan x="0" y="0">Stratopause</tspan></text>
      <text class="st4" transform="translate(743.3 153)"><tspan x="0" y="0">Mesopause</tspan></text>
    </g>
  </g>
  <g id="starter_graphics">
    <g id="example-clouds" class="st10">
      <ellipse class="st8" cx="150" cy="520" rx="15" ry="8"/>
      <ellipse class="st8" cx="165" cy="518" rx="18" ry="10"/>
      <ellipse class="st8" cx="180" cy="522" rx="12" ry="6"/>
    </g>
    <g id="example-mountains" class="st11">
      <polygon class="st9" points="100 550 120 530 140 540 160 520 180 535 200 525 220 540 240 530 260 545 280 535 300 550 100 550"/>
    </g>
  </g>
  <g id="clouds.svg">
    <path class="st7" d="M562.9,536.7c-6.9.5-19.2,1.1-25.6,0s-3-6-3-8,3-6.4,3-6.4c0,0-3.6-2.1-3-8s3-6.4,3-6.4c0,0-2.8-3.9-3-5.3-.4-3.3,4.1-4.3,3-5.3-4-3.9-5.9-7.5-5.9-7.5h67.3s-15.2,7.1-18.7,8c-5.5,1.5-17.1,1.6-17.1,1.6,0,0,4,2.3,4,4.8,0,3.7-4,5.3-4,5.3,0,0,4,2.8,4,3.7.2,6.3-4,7.5-4,7.5,0,0,3,5.2,3,6.9s-.6,8.9-3,9.1Z"/>
  </g>
</svg>